<svg width="246" height="78" viewBox="0 0 246 78" fill="none" xmlns="http://www.w3.org/2000/svg">
<path d="M3.61073 39.4828L7.72829 43.6004C24.7014 60.5735 52.3143 60.5735 69.2874 43.6004L73.3893 39.4828L69.2717 35.3653C52.2986 18.3921 24.6857 18.3921 7.71257 35.3653L3.61073 39.4828V39.4828ZM38.5 59.3163C26.5874 59.3163 14.6747 54.7744 5.60664 45.7063L0.436116 40.5358C-0.145372 39.9543 -0.145372 39.0113 0.436116 38.4141L5.60664 33.2436C23.7428 15.1075 53.2572 15.1075 71.3934 33.2436L76.5639 38.4141C77.1454 38.9956 77.1454 39.9386 76.5639 40.5358L71.3934 45.7063C62.3253 54.7744 50.4126 59.3163 38.5 59.3163V59.3163Z" fill="#00B91E"/>
<path d="M38.4845 30.048C33.2813 30.048 29.0536 34.2756 29.0536 39.4789C29.0536 44.6821 33.2813 48.9098 38.4845 48.9098C43.6878 48.9098 47.9154 44.6821 47.9154 39.4789C47.9154 34.2756 43.6878 30.048 38.4845 30.048ZM38.4845 51.3813C31.9154 51.3813 26.5821 46.035 26.5821 39.4789C26.5821 32.9098 31.9284 27.5764 38.4845 27.5764C45.0406 27.5764 50.387 32.9228 50.387 39.4789C50.387 46.048 45.0536 51.3813 38.4845 51.3813Z" fill="#00B91E"/>
<path d="M57.5284 39.4789C57.5284 49.9965 49.0022 58.5228 38.4845 58.5228C27.9669 58.5228 19.4406 49.9965 19.4406 39.4789C19.4406 28.9612 27.9669 20.435 38.4845 20.435C49.0022 20.435 57.5284 28.9612 57.5284 39.4789ZM22.2688 39.4789C22.2688 48.4346 29.5288 55.6946 38.4845 55.6946C47.4402 55.6946 54.7002 48.4346 54.7002 39.4789C54.7002 30.5232 47.4402 23.2632 38.4845 23.2632C29.5288 23.2632 22.2688 30.5232 22.2688 39.4789Z" fill="#00B91E"/>
<path d="M50.3869 39.4789C50.3869 46.0524 45.0581 51.3813 38.4845 51.3813C31.911 51.3813 26.5821 46.0524 26.5821 39.4789C26.5821 32.9054 31.911 27.5765 38.4845 27.5765C45.0581 27.5765 50.3869 32.9054 50.3869 39.4789ZM29.3801 39.4789C29.3801 44.5071 33.4563 48.5833 38.4845 48.5833C43.5128 48.5833 47.5889 44.5071 47.5889 39.4789C47.5889 34.4507 43.5128 30.3745 38.4845 30.3745C33.4563 30.3745 29.3801 34.4507 29.3801 39.4789Z" fill="#00B91E"/>
<line x1="1.5" y1="2.49438" x2="1.5" y2="26.0765" stroke="#00B91E" stroke-width="3" stroke-linecap="round"/>
<line x1="1.5" y1="52.8813" x2="1.5" y2="76.4634" stroke="#00B91E" stroke-width="3" stroke-linecap="round"/>
<line x1="76.0886" y1="52.8813" x2="76.0886" y2="76.4634" stroke="#00B91E" stroke-width="3" stroke-linecap="round"/>
<line x1="76.0886" y1="2.49438" x2="76.0886" y2="26.0765" stroke="#00B91E" stroke-width="3" stroke-linecap="round"/>
<line x1="52.5" y1="1.5" x2="76.0821" y2="1.5" stroke="#00B91E" stroke-width="3" stroke-linecap="round"/>
<line x1="1.5" y1="1.5" x2="25.0821" y2="1.5" stroke="#00B91E" stroke-width="3" stroke-linecap="round"/>
<line x1="1.5" y1="76.4634" x2="25.0821" y2="76.4634" stroke="#00B91E" stroke-width="3" stroke-linecap="round"/>
<line x1="52.5" y1="76.5" x2="76.0821" y2="76.5" stroke="#00B91E" stroke-width="3" stroke-linecap="round"/>
<path d="M92.1465 27.1553L100.555 26.9941V28.7959L97.8154 29.3672L102.532 43.957L107.542 29.3965L104.744 28.7959V27.1553L112.845 26.9941V28.7959L110.516 29.3965L103.851 48H100.848L94.4609 29.3965L92.1465 28.7959V27.1553ZM112.088 46.1982L114.637 45.5977V29.3965L112.088 28.7959V27.1553L120.335 26.9941V28.7959L117.787 29.3965V45.5977L120.335 46.1982V48H112.088V46.1982ZM125.145 44.9971C125.223 45.0361 125.404 45.1191 125.687 45.2461C125.971 45.3633 126.356 45.4756 126.845 45.583C127.333 45.6904 127.865 45.7441 128.441 45.7441C129.642 45.7441 130.707 45.4609 131.635 44.8945C132.572 44.3281 133.041 43.542 133.041 42.5361C133.041 41.8916 132.841 41.3545 132.44 40.9248C132.04 40.4854 131.542 40.1289 130.946 39.8555C130.36 39.582 129.55 39.2549 128.514 38.874C127.157 38.3955 126.058 37.9463 125.219 37.5264C124.388 37.1064 123.676 36.501 123.08 35.71C122.494 34.9189 122.201 33.9033 122.201 32.6631C122.201 30.6807 122.875 29.1914 124.222 28.1953C125.58 27.1992 127.279 26.7012 129.32 26.7012C130.16 26.7012 131.049 26.7939 131.986 26.9795C132.924 27.1553 133.724 27.3408 134.388 27.5361C135.053 27.7217 135.472 27.8438 135.648 27.9023L135.502 33H133.554L132.528 29.792C132.45 29.7725 132.26 29.7188 131.957 29.6309C131.654 29.5332 131.263 29.4453 130.785 29.3672C130.306 29.2891 129.828 29.25 129.349 29.25C128.07 29.25 127.084 29.5381 126.39 30.1143C125.697 30.6807 125.35 31.3643 125.35 32.165C125.35 32.8096 125.551 33.3516 125.951 33.791C126.351 34.2207 126.849 34.5771 127.445 34.8604C128.051 35.1436 128.895 35.4756 129.979 35.8564C131.278 36.3154 132.343 36.75 133.173 37.1602C134.003 37.5703 134.706 38.1514 135.282 38.9033C135.868 39.6455 136.161 40.5879 136.161 41.7305C136.161 43.166 135.809 44.3818 135.106 45.3779C134.403 46.3643 133.456 47.0967 132.264 47.5752C131.083 48.0537 129.769 48.293 128.324 48.293C127.387 48.293 126.464 48.2051 125.555 48.0293C124.647 47.8535 123.89 47.6729 123.285 47.4873C122.689 47.292 122.308 47.165 122.142 47.1064V41.8477H124.545L125.145 44.9971ZM137.646 46.1982L140.195 45.5977V29.3965L137.646 28.7959V27.1553L145.893 26.9941V28.7959L143.344 29.3965V45.5977L145.893 46.1982V48H137.646V46.1982ZM157.148 26.7012C159.072 26.7012 160.732 27.126 162.129 27.9756C163.535 28.8252 164.604 30.041 165.337 31.623C166.079 33.2051 166.45 35.0654 166.45 37.2041C166.45 39.3818 166.035 41.3105 165.205 42.9902C164.375 44.6699 163.208 45.9736 161.704 46.9014C160.21 47.8291 158.496 48.293 156.562 48.293C153.623 48.293 151.362 47.3799 149.78 45.5537C148.198 43.7275 147.407 41.0908 147.407 37.6436C147.407 35.4658 147.802 33.5469 148.593 31.8867C149.384 30.2266 150.512 28.9473 151.977 28.0488C153.452 27.1504 155.175 26.7012 157.148 26.7012ZM157.002 29.25C155 29.25 153.471 29.9238 152.417 31.2715C151.372 32.6191 150.849 34.6943 150.849 37.4971C150.849 40.2217 151.338 42.2773 152.314 43.6641C153.3 45.0508 154.765 45.7441 156.709 45.7441C158.711 45.7441 160.258 45.041 161.352 43.6348C162.456 42.2285 163.007 40.1338 163.007 37.3506C163.007 34.6748 162.495 32.6582 161.469 31.3008C160.454 29.9336 158.964 29.25 157.002 29.25ZM175.903 46.1982V48H167.803V46.1982L170.352 45.5977V29.3965L167.803 28.7959V27.1553L174.102 26.9941L184.004 43.7666V29.3965L181.455 28.7959V27.1553L189.248 26.9941V28.7959L186.699 29.3965V48H182.949L173.047 31.4766V45.5977L175.903 46.1982ZM198.101 27.1553L201.104 26.9941L207.769 45.627L210.259 46.1982V48H201.558V46.1982L204.341 45.627L203.199 42.3018H195.406L194.234 45.627L197.046 46.1982V48H188.799V46.1982L191.26 45.627L198.101 27.1553ZM199.361 30.876L196.211 39.8994H202.393L199.361 30.876ZM212.491 29.3965L209.942 28.7959V27.1553L215.64 26.9941H218.936C221.055 26.9941 222.711 27.4775 223.902 28.4443C225.094 29.4014 225.689 30.7197 225.689 32.3994C225.689 35.3389 224.39 37.2871 221.793 38.2441C222.271 38.6641 222.872 39.5674 223.595 40.9541L225.968 45.7148L228.092 46.1982V48H223.595L221.046 42.4482C220.567 41.4131 220.147 40.6514 219.786 40.1631C219.425 39.665 219.039 39.3232 218.629 39.1377C218.219 38.9424 217.672 38.8447 216.988 38.8447H215.64V45.5977L218.189 46.1982V48H209.942V46.1982L212.491 45.5977V29.3965ZM217.896 36.6035C219.351 36.6035 220.489 36.2764 221.309 35.6221C222.13 34.958 222.54 34.0352 222.54 32.8535C222.54 31.8574 222.188 31.0322 221.485 30.3779C220.792 29.7236 219.893 29.3965 218.79 29.3965H215.64V36.6035H217.896ZM234.703 40.2363L228.917 29.3672L226.896 28.7959V27.1553L234.396 26.9941V28.7959L232.36 29.3965L236.359 37.8047L240.768 29.3965L238.453 28.7959V27.1553L245.646 26.9941V28.7959L243.8 29.3379L237.853 40.1631V45.5977L240.402 46.1982V48H232.154V46.1982L234.703 45.5977V40.2363Z" fill="#00B91E"/>
</svg>
